<svg xmlns="http://www.w3.org/2000/svg" width="16" height="16" viewBox="0 0 16 16">
  <defs>
    <linearGradient id="g16" x1="0%" x2="100%" y1="0%" y2="100%">
      <stop offset="0%" stop-color="#60a5fa"/>
      <stop offset="100%" stop-color="#2563eb"/>
    </linearGradient>
  </defs>
  <rect width="16" height="16" rx="4" fill="url(#g16)"/>
  <path d="M8 2l4 1.5v3.3C12 9.7 10.5 12.4 8 14 5.5 12.4 4 9.7 4 6.8V3.5L8 2zm0 2.4l-2.2.8v2.7c0 1.8 1 3.2 2.2 4.1 1.2-.9 2.2-2.3 2.2-4.1V5.2L8 4.4zm-1.4 2.5h2.8v1h-2.8V6.9zm0 2.3h2.8v1H6.6v-1z" fill="#fff"/>
</svg>
